<svg width="20" height="20" viewBox="0 0 20 20" fill="none" xmlns="http://www.w3.org/2000/svg">
<path fill-rule="evenodd" clip-rule="evenodd" d="M15.8658 4.13427C14.3101 2.57857 12.2001 1.70459 10 1.70459C7.79991 1.70459 5.68993 2.57857 4.13423 4.13427C2.57853 5.68997 1.70455 7.79995 1.70455 10C1.70455 11.0894 1.91911 12.1681 2.336 13.1746C2.75289 14.181 3.36393 15.0955 4.13423 15.8658C4.90453 16.6361 5.81902 17.2472 6.82547 17.664C7.83192 18.0809 8.91063 18.2955 10 18.2955C11.0894 18.2955 12.1681 18.0809 13.1745 17.664C14.181 17.2472 15.0955 16.6361 15.8658 15.8658C16.6361 15.0955 17.2471 14.181 17.664 13.1746C18.0809 12.1681 18.2955 11.0894 18.2955 10C18.2955 7.79995 17.4215 5.68997 15.8658 4.13427ZM10 3.2955C11.7782 3.2955 13.4835 4.00187 14.7408 5.25921C15.9982 6.51656 16.7045 8.22189 16.7045 10C16.7045 10.8805 16.5311 11.7523 16.1942 12.5658C15.8573 13.3792 15.3634 14.1183 14.7408 14.7409C14.1183 15.3634 13.3792 15.8573 12.5657 16.1942C11.7523 16.5312 10.8805 16.7046 10 16.7046C9.11955 16.7046 8.24771 16.5312 7.43428 16.1942C6.62085 15.8573 5.88175 15.3634 5.25917 14.7409C4.6366 14.1183 4.14274 13.3792 3.80581 12.5658C3.46887 11.7523 3.29546 10.8805 3.29546 10C3.29546 8.22189 4.00183 6.51656 5.25917 5.25921C6.51652 4.00187 8.22185 3.2955 10 3.2955Z" fill="black"/>
<path fill-rule="evenodd" clip-rule="evenodd" d="M13.2955 10C13.2955 9.56073 12.9393 9.20459 12.5 9.20459H7.5C7.06068 9.20459 6.70455 9.56073 6.70455 10C6.70455 10.4394 7.06068 10.7955 7.5 10.7955H12.5C12.9393 10.7955 13.2955 10.4394 13.2955 10Z" fill="black"/>
<path fill-rule="evenodd" clip-rule="evenodd" d="M10 6.70459C9.56068 6.70459 9.20455 7.06073 9.20455 7.50004V12.5C9.20455 12.9394 9.56068 13.2955 10 13.2955C10.4393 13.2955 10.7955 12.9394 10.7955 12.5V7.50004C10.7955 7.06073 10.4393 6.70459 10 6.70459Z" fill="black"/>
</svg>
